<?xml version="1.0" standalone="no"?><!DOCTYPE svg PUBLIC "-//W3C//DTD SVG 1.1//EN" "http://www.w3.org/Graphics/SVG/1.1/DTD/svg11.dtd"><svg t="1666592555625" class="icon" viewBox="0 0 1024 1024" version="1.1" xmlns="http://www.w3.org/2000/svg" p-id="2011" width="128" height="128" xmlns:xlink="http://www.w3.org/1999/xlink"><path d="M681.35 1024H235.87c-85.95 0-155.88-69.93-155.88-155.88V155.88C79.99 69.93 149.92 0 235.87 0h567.69c85.96 0 155.88 69.93 155.88 155.88v613.68c0 9.52-4.03 18.6-11.1 24.99l-244.42 220.77a33.717 33.717 0 0 1-22.57 8.68zM235.87 67.34c-48.82 0-88.54 39.72-88.54 88.54v712.24c0 48.82 39.72 88.54 88.54 88.54h432.52l223.7-202.05V155.88c0-48.82-39.72-88.54-88.54-88.54H235.87z" p-id="2012" fill="#bfbfbf"></path><path d="M657.06 1020.11c-18.6 0-33.67-15.08-33.67-33.67V802.93c-0.45-30.63 12.67-60.87 35.99-82.46 23.21-21.49 54.17-32.38 85.16-30.01h181.39c18.6 0 33.67 15.08 33.67 33.67s-15.07 33.67-33.67 33.67H743.14c-1.03 0-2.06-0.05-3.08-0.14-12.56-1.14-25.3 3.3-34.93 12.22-9.47 8.76-14.58 20.33-14.4 32.56v184c0 18.59-15.07 33.67-33.67 33.67zM664.59 331.07H320.17c-18.6 0-33.67-15.08-33.67-33.67s15.07-33.67 33.67-33.67h344.42c18.6 0 33.67 15.08 33.67 33.67s-15.08 33.67-33.67 33.67zM676.97 519.38h-356.8c-18.6 0-33.67-15.08-33.67-33.67 0-18.59 15.07-33.67 33.67-33.67h356.8c18.6 0 33.67 15.08 33.67 33.67 0 18.6-15.07 33.67-33.67 33.67zM461.41 707.69H320.17c-18.6 0-33.67-15.08-33.67-33.67s15.07-33.67 33.67-33.67H461.4c18.6 0 33.67 15.08 33.67 33.67s-15.07 33.67-33.66 33.67z" p-id="2013" fill="#bfbfbf"></path></svg>